# xmcd CD database file
#
# Track frame offsets:
#	150
#	21444
#	33653
#	48902
#	73700
#	90731
#	106687
#	140067
#	162728
#	179788
#	200362
#
# Disc length: 3009 seconds
#
# Revision: 0
# Processed by: cddbd v1.5.2PL0 Copyright (c) Steve Scherf et al.
# Submitted via: CDex 1.70beta2
#
DISCID=a30bbf0b
DTITLE=Latin the Mood - Nordic Samba
DYEAR=2005
DGENRE=Jazz
TTITLE0=Bluesbussen
TTITLE1=Happy Hour
TTITLE2=Velocipede
TTITLE3=Röd lök
TTITLE4=A bela e a fera
TTITLE5=Mais nato que o donato
TTITLE6=Sin Sol
TTITLE7=Gil
TTITLE8=Time
TTITLE9=Banken
TTITLE10=Holgatustunden
EXTD=YEAR: 2005
EXTT0=
EXTT1=
EXTT2=
EXTT3=
EXTT4=
EXTT5=
EXTT6=
EXTT7=
EXTT8=
EXTT9=
EXTT10=
PLAYORDER=
